<svg width="1227" height="357" viewBox="0 0 1227 357" fill="#ffffff" xmlns="http://www.w3.org/2000/svg">
<mask id="mask0_503_93" style="mask-type:alpha" maskUnits="userSpaceOnUse" x="0" y="0" width="1227" height="357">
<path d="M1227 0H0V357H1227V0Z" fill="url(#paint0_radial_503_93)"/>
</mask>
<g mask="url(#mask0_503_93)">
<path d="M111.5 70.5H56.5V125.5H111.5V70.5Z" stroke="#4C1D95"/>
<path d="M166.5 70.5H111.5V125.5H166.5V70.5Z" stroke="#4C1D95"/>
<path d="M221.5 70.5H166.5V125.5H221.5V70.5Z" stroke="#4C1D95"/>
<path d="M276.5 70.5H221.5V125.5H276.5V70.5Z" stroke="#4C1D95"/>
<path d="M331.5 70.5H276.5V125.5H331.5V70.5Z" stroke="#4C1D95"/>
<path d="M496 70H440V126H496V70Z" fill="#4C1D95"/>
<path d="M496 15H440V71H496V15Z" fill="#4C1D95"/>
<path d="M386.5 70.5H331.5V125.5H386.5V70.5Z" stroke="#4C1D95"/>
<path d="M441.5 70.5H386.5V125.5H441.5V70.5Z" stroke="#4C1D95"/>
<path d="M496.5 70.5H441.5V125.5H496.5V70.5Z" stroke="#4C1D95"/>
<path d="M551.5 70.5H496.5V125.5H551.5V70.5Z" stroke="#4C1D95"/>
<path d="M606.5 70.5H551.5V125.5H606.5V70.5Z" stroke="#4C1D95"/>
<path d="M716.5 70.5H661.5V125.5H716.5V70.5Z" stroke="#4C1D95"/>
<path d="M771.5 70.5H716.5V125.5H771.5V70.5Z" stroke="#4C1D95"/>
<path d="M826.5 70.5H771.5V125.5H826.5V70.5Z" stroke="#4C1D95"/>
<path d="M881.5 70.5H826.5V125.5H881.5V70.5Z" stroke="#4C1D95"/>
<path d="M936.5 70.5H881.5V125.5H936.5V70.5Z" stroke="#4C1D95"/>
<path d="M991.5 70.5H936.5V125.5H991.5V70.5Z" stroke="#4C1D95"/>
<path d="M1046.5 70.5H991.5V125.5H1046.5V70.5Z" stroke="#4C1D95"/>
<path d="M1101.5 70.5H1046.5V125.5H1101.5V70.5Z" stroke="#4C1D95"/>
<path d="M1156.5 70.5H1101.5V125.5H1156.5V70.5Z" stroke="#4C1D95"/>
<path d="M111.5 125.5H56.5V180.5H111.5V125.5Z" stroke="#4C1D95"/>
<path d="M166.5 125.5H111.5V180.5H166.5V125.5Z" stroke="#4C1D95"/>
<path d="M221.5 125.5H166.5V180.5H221.5V125.5Z" stroke="#4C1D95"/>
<path d="M277 125H221V181H277V125Z" fill="#4C1D95"/>
<path d="M276.5 125.5H221.5V180.5H276.5V125.5Z" stroke="#4C1D95"/>
<path d="M331.5 125.5H276.5V180.5H331.5V125.5Z" stroke="#4C1D95"/>
<path d="M386.5 125.5H331.5V180.5H386.5V125.5Z" stroke="#4C1D95"/>
<path d="M441.5 125.5H386.5V180.5H441.5V125.5Z" stroke="#4C1D95"/>
<path d="M496.5 125.5H441.5V180.5H496.5V125.5Z" stroke="#4C1D95"/>
<path d="M551.5 125.5H496.5V180.5H551.5V125.5Z" stroke="#4C1D95"/>
<path d="M606.5 125.5H551.5V180.5H606.5V125.5Z" stroke="#4C1D95"/>
<path d="M606.5 15.5H551.5V70.5H606.5V15.5Z" stroke="#4C1D95"/>
<path d="M771.5 15.5H716.5V70.5H771.5V15.5Z" stroke="#4C1D95"/>
<path d="M661.5 125.5H606.5V180.5H661.5V125.5Z" stroke="#4C1D95"/>
<path d="M716.5 125.5H661.5V180.5H716.5V125.5Z" stroke="#4C1D95"/>
<path d="M772 125H716V181H772V125Z" fill="#4C1D95"/>
<path d="M771.5 125.5H716.5V180.5H771.5V125.5Z" stroke="#4C1D95"/>
<path d="M826.5 125.5H771.5V180.5H826.5V125.5Z" stroke="#4C1D95"/>
<path d="M881.5 125.5H826.5V180.5H881.5V125.5Z" stroke="#4C1D95"/>
<path d="M936.5 125.5H881.5V180.5H936.5V125.5Z" stroke="#4C1D95"/>
<path d="M991.5 125.5H936.5V180.5H991.5V125.5Z" stroke="#4C1D95"/>
<path d="M1046.5 125.5H991.5V180.5H1046.5V125.5Z" stroke="#4C1D95"/>
<path d="M1101.5 125.5H1046.5V180.5H1101.5V125.5Z" stroke="#4C1D95"/>
<path d="M1156.5 125.5H1101.5V180.5H1156.5V125.5Z" stroke="#4C1D95"/>
<path d="M111.5 180.5H56.5V235.5H111.5V180.5Z" stroke="#4C1D95"/>
<path d="M166.5 180.5H111.5V235.5H166.5V180.5Z" stroke="#4C1D95"/>
<path d="M221.5 180.5H166.5V235.5H221.5V180.5Z" stroke="#4C1D95"/>
<path d="M276.5 180.5H221.5V235.5H276.5V180.5Z" stroke="#4C1D95"/>
<path d="M331.5 180.5H276.5V235.5H331.5V180.5Z" stroke="#4C1D95"/>
<path d="M662 180H606V236H662V180Z" fill="#4C1D95"/>
<path d="M551.5 180.5H496.5V235.5H551.5V180.5Z" stroke="#4C1D95"/>
<path d="M552 125H496V181H552V125Z" fill="#4C1D95"/>
<path d="M606.5 180.5H551.5V235.5H606.5V180.5Z" stroke="#4C1D95"/>
<path d="M661.5 180.5H606.5V235.5H661.5V180.5Z" stroke="#4C1D95"/>
<path d="M716.5 180.5H661.5V235.5H716.5V180.5Z" stroke="#4C1D95"/>
<path d="M771.5 180.5H716.5V235.5H771.5V180.5Z" stroke="#4C1D95"/>
<path d="M826.5 180.5H771.5V235.5H826.5V180.5Z" stroke="#4C1D95"/>
<path d="M881.5 180.5H826.5V235.5H881.5V180.5Z" stroke="#4C1D95"/>
<path d="M936.5 180.5H881.5V235.5H936.5V180.5Z" stroke="#4C1D95"/>
<path d="M991.5 180.5H936.5V235.5H991.5V180.5Z" stroke="#4C1D95"/>
<path d="M1046.5 180.5H991.5V235.5H1046.5V180.5Z" stroke="#4C1D95"/>
<path d="M1101.5 180.5H1046.5V235.5H1101.5V180.5Z" stroke="#4C1D95"/>
<path d="M1156.5 180.5H1101.5V235.5H1156.5V180.5Z" stroke="#4C1D95"/>
<path d="M111.5 235.5H56.5V290.5H111.5V235.5Z" stroke="#4C1D95"/>
<path d="M166.5 235.5H111.5V290.5H166.5V235.5Z" stroke="#4C1D95"/>
<path d="M221.5 235.5H166.5V290.5H221.5V235.5Z" stroke="#4C1D95"/>
<path d="M276.5 235.5H221.5V290.5H276.5V235.5Z" stroke="#4C1D95"/>
<path d="M331.5 235.5H276.5V290.5H331.5V235.5Z" stroke="#4C1D95"/>
<path d="M386.5 235.5H331.5V290.5H386.5V235.5Z" stroke="#4C1D95"/>
<path d="M441.5 235.5H386.5V290.5H441.5V235.5Z" stroke="#4C1D95"/>
<path d="M496.5 235.5H441.5V290.5H496.5V235.5Z" stroke="#4C1D95"/>
<path d="M551.5 235.5H496.5V290.5H551.5V235.5Z" stroke="#4C1D95"/>
<path d="M551.5 290.5H496.5V345.5H551.5V290.5Z" stroke="#4C1D95"/>
<path d="M661.5 235.5H606.5V290.5H661.5V235.5Z" stroke="#4C1D95"/>
<path d="M716.5 290.5H661.5V345.5H716.5V290.5Z" stroke="#4C1D95"/>
</g>
<defs>
<radialGradient id="paint0_radial_503_93" cx="0" cy="0" r="1" gradientUnits="userSpaceOnUse" gradientTransform="translate(614 139.5) rotate(-157.455) scale(293.423 1008.49)">
<stop stop-color="#D7D7D7" stop-opacity="0.2"/>
<stop offset="0.522644" stop-color="#D9D9D9" stop-opacity="0"/>
</radialGradient>
</defs>
</svg>
